<?xml version="1.0" encoding="UTF-8" standalone="no"?>
<!DOCTYPE svg PUBLIC "-//W3C//DTD SVG 1.1//EN"
 "http://www.w3.org/Graphics/SVG/1.1/DTD/svg11.dtd">
<!-- Generated by graphviz version 12.2.1 (0)
 -->
<!-- Title: lib Pages: 1 -->
<svg width="492pt" height="146pt"
 viewBox="0.00 0.00 492.38 146.25" xmlns="http://www.w3.org/2000/svg" xmlns:xlink="http://www.w3.org/1999/xlink">
<g id="graph0" class="graph" transform="scale(1 1) rotate(0) translate(4 142.25)">
<title>lib</title>
<g id="clust1" class="cluster">
<title>clusterdir_bdd9a5d540de89e9fe90efdfc6973a4f</title>
<g id="a_clust1"><a xlink:href="dir_bdd9a5d540de89e9fe90efdfc6973a4f.html" target="_top" xlink:title="common">
<polygon fill="#edf0f7" stroke="#404040" stroke-dasharray="5,2" points="8,-8 8,-130.25 374,-130.25 374,-8 8,-8"/>
<text text-anchor="middle" x="191" y="-116.75" font-family="Helvetica,sans-Serif" font-size="10.00">common</text>
</a>
</g>
</g>
<g id="clust2" class="cluster">
<title>clusterdir_913229d03cb660fb95c0f2ea29d516b6</title>
<g id="a_clust2"><a xlink:href="dir_913229d03cb660fb95c0f2ea29d516b6.html" target="_top">
<polygon fill="#edf0f7" stroke="#404040" stroke-width="2" points="16,-64.75 16,-101.5 366,-101.5 366,-64.75 16,-64.75"/>
</a>
</g>
</g>
<!-- dir_11fbc4217d50ab21044e5ad6614aede5 -->
<g id="node1" class="node">
<title>dir_11fbc4217d50ab21044e5ad6614aede5</title>
<g id="a_node1"><a xlink:href="dir_11fbc4217d50ab21044e5ad6614aede5.html" target="_top" xlink:title="include">
<polygon fill="#a2b4d6" stroke="red" points="240.62,-36.75 189.38,-36.75 189.38,-16 240.62,-16 240.62,-36.75"/>
<text text-anchor="middle" x="215" y="-23.25" font-family="Helvetica,sans-Serif" font-size="10.00">include</text>
</a>
</g>
</g>
<!-- dir_913229d03cb660fb95c0f2ea29d516b6 -->
<g id="node2" class="node">
<title>dir_913229d03cb660fb95c0f2ea29d516b6</title>
<text text-anchor="middle" x="38" y="-80" font-family="Helvetica,sans-Serif" font-size="10.00">lib</text>
</g>
<!-- dir_f0d4ea092f2fcf86d66cc92ed4396112 -->
<g id="node3" class="node">
<title>dir_f0d4ea092f2fcf86d66cc92ed4396112</title>
<g id="a_node3"><a xlink:href="dir_f0d4ea092f2fcf86d66cc92ed4396112.html" target="_top" xlink:title="CommandLine">
<polygon fill="#a2b4d6" stroke="#404040" points="302.25,-93.5 215.75,-93.5 215.75,-72.75 302.25,-72.75 302.25,-93.5"/>
<text text-anchor="middle" x="259" y="-80" font-family="Helvetica,sans-Serif" font-size="10.00">CommandLine</text>
</a>
</g>
</g>
<!-- dir_f0d4ea092f2fcf86d66cc92ed4396112&#45;&gt;dir_11fbc4217d50ab21044e5ad6614aede5 -->
<g id="edge1" class="edge">
<title>dir_f0d4ea092f2fcf86d66cc92ed4396112&#45;&gt;dir_11fbc4217d50ab21044e5ad6614aede5</title>
<g id="a_edge1"><a xlink:href="dir_000003_000015.html" target="_top">
<path fill="none" stroke="#63b8ff" d="M251.13,-72.34C245.25,-65.02 237.03,-54.79 229.92,-45.94"/>
<polygon fill="#63b8ff" stroke="#63b8ff" points="232.74,-43.86 223.75,-38.26 227.28,-48.25 232.74,-43.86"/>
</a>
</g>
<g id="a_edge1&#45;headlabel"><a xlink:href="dir_000003_000015.html" target="_top" xlink:title="1">
<text text-anchor="middle" x="236.26" y="-40.58" font-family="Helvetica,sans-Serif" font-size="10.00" fill="#63b8ff">1</text>
</a>
</g>
</g>
<!-- dir_a0375c57c732153bb7f7cb59a1b4710b -->
<g id="node4" class="node">
<title>dir_a0375c57c732153bb7f7cb59a1b4710b</title>
<g id="a_node4"><a xlink:href="dir_a0375c57c732153bb7f7cb59a1b4710b.html" target="_top" xlink:title="Eval">
<polygon fill="#a2b4d6" stroke="#404040" points="357.5,-93.5 320.5,-93.5 320.5,-72.75 357.5,-72.75 357.5,-93.5"/>
<text text-anchor="middle" x="339" y="-80" font-family="Helvetica,sans-Serif" font-size="10.00">Eval</text>
</a>
</g>
</g>
<!-- dir_a0375c57c732153bb7f7cb59a1b4710b&#45;&gt;dir_11fbc4217d50ab21044e5ad6614aede5 -->
<g id="edge2" class="edge">
<title>dir_a0375c57c732153bb7f7cb59a1b4710b&#45;&gt;dir_11fbc4217d50ab21044e5ad6614aede5</title>
<g id="a_edge2"><a xlink:href="dir_000012_000015.html" target="_top">
<path fill="none" stroke="#63b8ff" d="M324.47,-72.4C320.22,-69.76 315.5,-67 311,-64.75 291.92,-55.22 269.79,-46.46 251.58,-39.82"/>
<polygon fill="#63b8ff" stroke="#63b8ff" points="252.84,-36.55 242.24,-36.48 250.48,-43.14 252.84,-36.55"/>
</a>
</g>
<g id="a_edge2&#45;headlabel"><a xlink:href="dir_000012_000015.html" target="_top" xlink:title="4">
<text text-anchor="middle" x="255.75" y="-31.45" font-family="Helvetica,sans-Serif" font-size="10.00" fill="#63b8ff">4</text>
</a>
</g>
</g>
<!-- dir_271d3aa807e54726686810b489123a0c -->
<g id="node7" class="node">
<title>dir_271d3aa807e54726686810b489123a0c</title>
<g id="a_node7"><a xlink:href="dir_271d3aa807e54726686810b489123a0c.html" target="_top" xlink:title="nixd">
<polygon fill="#edf0f7" stroke="red" points="419.5,-36.75 382.5,-36.75 382.5,-16 419.5,-16 419.5,-36.75"/>
<text text-anchor="middle" x="401" y="-23.25" font-family="Helvetica,sans-Serif" font-size="10.00">nixd</text>
</a>
</g>
</g>
<!-- dir_a0375c57c732153bb7f7cb59a1b4710b&#45;&gt;dir_271d3aa807e54726686810b489123a0c -->
<g id="edge3" class="edge">
<title>dir_a0375c57c732153bb7f7cb59a1b4710b&#45;&gt;dir_271d3aa807e54726686810b489123a0c</title>
<g id="a_edge3"><a xlink:href="dir_000012_000028.html" target="_top">
<path fill="none" stroke="#63b8ff" d="M350.08,-72.34C358.81,-64.63 371.19,-53.7 381.56,-44.54"/>
<polygon fill="#63b8ff" stroke="#63b8ff" points="383.7,-47.32 388.88,-38.08 379.06,-42.08 383.7,-47.32"/>
</a>
</g>
<g id="a_edge3&#45;headlabel"><a xlink:href="dir_000012_000028.html" target="_top" xlink:title="1">
<text text-anchor="middle" x="384.02" y="-47.7" font-family="Helvetica,sans-Serif" font-size="10.00" fill="#63b8ff">1</text>
</a>
</g>
</g>
<!-- dir_c40eb6f7b133789742bdf3cebb28ba81 -->
<g id="node8" class="node">
<title>dir_c40eb6f7b133789742bdf3cebb28ba81</title>
<g id="a_node8"><a xlink:href="dir_c40eb6f7b133789742bdf3cebb28ba81.html" target="_top" xlink:title="libnixt">
<polygon fill="#edf0f7" stroke="red" points="484.38,-36.75 437.62,-36.75 437.62,-16 484.38,-16 484.38,-36.75"/>
<text text-anchor="middle" x="461" y="-23.25" font-family="Helvetica,sans-Serif" font-size="10.00">libnixt</text>
</a>
</g>
</g>
<!-- dir_a0375c57c732153bb7f7cb59a1b4710b&#45;&gt;dir_c40eb6f7b133789742bdf3cebb28ba81 -->
<g id="edge4" class="edge">
<title>dir_a0375c57c732153bb7f7cb59a1b4710b&#45;&gt;dir_c40eb6f7b133789742bdf3cebb28ba81</title>
<g id="a_edge4"><a xlink:href="dir_000012_000024.html" target="_top">
<path fill="none" stroke="#63b8ff" d="M357.8,-73.69C376.64,-65.24 406.01,-52.05 428.61,-41.91"/>
<polygon fill="#63b8ff" stroke="#63b8ff" points="430.02,-45.12 437.71,-37.83 427.15,-38.73 430.02,-45.12"/>
</a>
</g>
<g id="a_edge4&#45;headlabel"><a xlink:href="dir_000012_000024.html" target="_top" xlink:title="1">
<text text-anchor="middle" x="429.28" y="-45.43" font-family="Helvetica,sans-Serif" font-size="10.00" fill="#63b8ff">1</text>
</a>
</g>
</g>
<!-- dir_0e5179f8f813217f13af52822c02d13f -->
<g id="node5" class="node">
<title>dir_0e5179f8f813217f13af52822c02d13f</title>
<g id="a_node5"><a xlink:href="dir_0e5179f8f813217f13af52822c02d13f.html" target="_top" xlink:title="Protocol">
<polygon fill="#a2b4d6" stroke="#404040" points="125.88,-93.5 70.12,-93.5 70.12,-72.75 125.88,-72.75 125.88,-93.5"/>
<text text-anchor="middle" x="98" y="-80" font-family="Helvetica,sans-Serif" font-size="10.00">Protocol</text>
</a>
</g>
</g>
<!-- dir_0e5179f8f813217f13af52822c02d13f&#45;&gt;dir_11fbc4217d50ab21044e5ad6614aede5 -->
<g id="edge5" class="edge">
<title>dir_0e5179f8f813217f13af52822c02d13f&#45;&gt;dir_11fbc4217d50ab21044e5ad6614aede5</title>
<g id="a_edge5"><a xlink:href="dir_000036_000015.html" target="_top">
<path fill="none" stroke="#63b8ff" d="M118.74,-72.38C124.04,-69.89 129.73,-67.22 135,-64.75 151.09,-57.22 169,-48.84 183.79,-41.94"/>
<polygon fill="#63b8ff" stroke="#63b8ff" points="184.99,-45.24 192.57,-37.84 182.03,-38.9 184.99,-45.24"/>
</a>
</g>
<g id="a_edge5&#45;headlabel"><a xlink:href="dir_000036_000015.html" target="_top" xlink:title="1">
<text text-anchor="middle" x="184.3" y="-45.57" font-family="Helvetica,sans-Serif" font-size="10.00" fill="#63b8ff">1</text>
</a>
</g>
</g>
<!-- dir_07905c82e6bc5995798fc5aba4ee963c -->
<g id="node6" class="node">
<title>dir_07905c82e6bc5995798fc5aba4ee963c</title>
<g id="a_node6"><a xlink:href="dir_07905c82e6bc5995798fc5aba4ee963c.html" target="_top" xlink:title="Support">
<polygon fill="#a2b4d6" stroke="#404040" points="197.75,-93.5 144.25,-93.5 144.25,-72.75 197.75,-72.75 197.75,-93.5"/>
<text text-anchor="middle" x="171" y="-80" font-family="Helvetica,sans-Serif" font-size="10.00">Support</text>
</a>
</g>
</g>
<!-- dir_07905c82e6bc5995798fc5aba4ee963c&#45;&gt;dir_11fbc4217d50ab21044e5ad6614aede5 -->
<g id="edge6" class="edge">
<title>dir_07905c82e6bc5995798fc5aba4ee963c&#45;&gt;dir_11fbc4217d50ab21044e5ad6614aede5</title>
<g id="a_edge6"><a xlink:href="dir_000044_000015.html" target="_top">
<path fill="none" stroke="#63b8ff" d="M178.87,-72.34C184.75,-65.02 192.97,-54.79 200.08,-45.94"/>
<polygon fill="#63b8ff" stroke="#63b8ff" points="202.72,-48.25 206.25,-38.26 197.26,-43.86 202.72,-48.25"/>
</a>
</g>
<g id="a_edge6&#45;headlabel"><a xlink:href="dir_000044_000015.html" target="_top" xlink:title="4">
<text text-anchor="middle" x="203.63" y="-48.52" font-family="Helvetica,sans-Serif" font-size="10.00" fill="#63b8ff">4</text>
</a>
</g>
</g>
</g>
</svg>
