<?xml version="1.0" encoding="UTF-8" standalone="no"?>
<!DOCTYPE svg PUBLIC "-//W3C//DTD SVG 1.1//EN"
 "http://www.w3.org/Graphics/SVG/1.1/DTD/svg11.dtd">
<!-- Generated by graphviz version 12.2.1 (0)
 -->
<!-- Title: common Pages: 1 -->
<svg width="263pt" height="158pt"
 viewBox="0.00 0.00 263.18 158.25" xmlns="http://www.w3.org/2000/svg" xmlns:xlink="http://www.w3.org/1999/xlink">
<g id="graph0" class="graph" transform="scale(1 1) rotate(0) translate(4 154.25)">
<title>common</title>
<g id="clust1" class="cluster">
<title>clusterdir_bdd9a5d540de89e9fe90efdfc6973a4f</title>
<g id="a_clust1"><a xlink:href="dir_bdd9a5d540de89e9fe90efdfc6973a4f.html" target="_top">
<polygon fill="#edf0f7" stroke="#404040" stroke-width="2" points="8,-48.75 8,-142.25 187,-142.25 187,-48.75 8,-48.75"/>
</a>
</g>
</g>
<!-- dir_bdd9a5d540de89e9fe90efdfc6973a4f -->
<g id="node1" class="node">
<title>dir_bdd9a5d540de89e9fe90efdfc6973a4f</title>
<text text-anchor="middle" x="45" y="-120.75" font-family="Helvetica,sans-Serif" font-size="10.00">common</text>
</g>
<!-- dir_11fbc4217d50ab21044e5ad6614aede5 -->
<g id="node2" class="node">
<title>dir_11fbc4217d50ab21044e5ad6614aede5</title>
<g id="a_node2"><a xlink:href="dir_11fbc4217d50ab21044e5ad6614aede5.html" target="_top" xlink:title="include">
<polygon fill="#a2b4d6" stroke="#404040" points="135.62,-77.5 84.38,-77.5 84.38,-56.75 135.62,-56.75 135.62,-77.5"/>
<text text-anchor="middle" x="110" y="-64" font-family="Helvetica,sans-Serif" font-size="10.00">include</text>
</a>
</g>
</g>
<!-- dir_271d3aa807e54726686810b489123a0c -->
<g id="node5" class="node">
<title>dir_271d3aa807e54726686810b489123a0c</title>
<g id="a_node5"><a xlink:href="dir_271d3aa807e54726686810b489123a0c.html" target="_top" xlink:title="nixd">
<polygon fill="#edf0f7" stroke="red" points="182.5,-20.75 145.5,-20.75 145.5,0 182.5,0 182.5,-20.75"/>
<text text-anchor="middle" x="164" y="-7.25" font-family="Helvetica,sans-Serif" font-size="10.00">nixd</text>
</a>
</g>
</g>
<!-- dir_11fbc4217d50ab21044e5ad6614aede5&#45;&gt;dir_271d3aa807e54726686810b489123a0c -->
<g id="edge1" class="edge">
<title>dir_11fbc4217d50ab21044e5ad6614aede5&#45;&gt;dir_271d3aa807e54726686810b489123a0c</title>
<g id="a_edge1"><a xlink:href="dir_000015_000028.html" target="_top">
<path fill="none" stroke="#63b8ff" d="M119.65,-56.34C127.1,-48.78 137.61,-38.14 146.52,-29.1"/>
<polygon fill="#63b8ff" stroke="#63b8ff" points="148.84,-31.73 153.37,-22.16 143.85,-26.82 148.84,-31.73"/>
</a>
</g>
<g id="a_edge1&#45;headlabel"><a xlink:href="dir_000015_000028.html" target="_top" xlink:title="4">
<text text-anchor="middle" x="149.4" y="-32.08" font-family="Helvetica,sans-Serif" font-size="10.00" fill="#63b8ff">4</text>
</a>
</g>
</g>
<!-- dir_913229d03cb660fb95c0f2ea29d516b6 -->
<g id="node3" class="node">
<title>dir_913229d03cb660fb95c0f2ea29d516b6</title>
<g id="a_node3"><a xlink:href="dir_913229d03cb660fb95c0f2ea29d516b6.html" target="_top" xlink:title="lib">
<polygon fill="#a2b4d6" stroke="#404040" points="121.4,-134.25 92.6,-134.25 92.6,-113.5 121.4,-113.5 121.4,-134.25"/>
<text text-anchor="middle" x="107" y="-120.75" font-family="Helvetica,sans-Serif" font-size="10.00">lib</text>
</a>
</g>
</g>
<!-- dir_913229d03cb660fb95c0f2ea29d516b6&#45;&gt;dir_11fbc4217d50ab21044e5ad6614aede5 -->
<g id="edge2" class="edge">
<title>dir_913229d03cb660fb95c0f2ea29d516b6&#45;&gt;dir_11fbc4217d50ab21044e5ad6614aede5</title>
<g id="a_edge2"><a xlink:href="dir_000020_000015.html" target="_top">
<path fill="none" stroke="#63b8ff" d="M107.54,-113.09C107.9,-106.47 108.39,-97.47 108.84,-89.27"/>
<polygon fill="#63b8ff" stroke="#63b8ff" points="112.33,-89.52 109.39,-79.34 105.34,-89.13 112.33,-89.52"/>
</a>
</g>
<g id="a_edge2&#45;headlabel"><a xlink:href="dir_000020_000015.html" target="_top" xlink:title="10">
<text text-anchor="middle" x="115.05" y="-88.62" font-family="Helvetica,sans-Serif" font-size="10.00" fill="#63b8ff">10</text>
</a>
</g>
</g>
<!-- dir_913229d03cb660fb95c0f2ea29d516b6&#45;&gt;dir_271d3aa807e54726686810b489123a0c -->
<g id="edge3" class="edge">
<title>dir_913229d03cb660fb95c0f2ea29d516b6&#45;&gt;dir_271d3aa807e54726686810b489123a0c</title>
<g id="a_edge3"><a xlink:href="dir_000020_000028.html" target="_top">
<path fill="none" stroke="#63b8ff" d="M117.09,-113.32C125.65,-104.7 137.67,-91.29 145,-77.5 152.64,-63.13 157.53,-45.32 160.43,-31.8"/>
<polygon fill="#63b8ff" stroke="#63b8ff" points="163.81,-32.79 162.27,-22.31 156.93,-31.46 163.81,-32.79"/>
</a>
</g>
<g id="a_edge3&#45;headlabel"><a xlink:href="dir_000020_000028.html" target="_top" xlink:title="1">
<text text-anchor="middle" x="166.2" y="-32.25" font-family="Helvetica,sans-Serif" font-size="10.00" fill="#63b8ff">1</text>
</a>
</g>
</g>
<!-- dir_c40eb6f7b133789742bdf3cebb28ba81 -->
<g id="node6" class="node">
<title>dir_c40eb6f7b133789742bdf3cebb28ba81</title>
<g id="a_node6"><a xlink:href="dir_c40eb6f7b133789742bdf3cebb28ba81.html" target="_top" xlink:title="libnixt">
<polygon fill="#edf0f7" stroke="red" points="241.38,-77.5 194.62,-77.5 194.62,-56.75 241.38,-56.75 241.38,-77.5"/>
<text text-anchor="middle" x="218" y="-64" font-family="Helvetica,sans-Serif" font-size="10.00">libnixt</text>
</a>
</g>
</g>
<!-- dir_913229d03cb660fb95c0f2ea29d516b6&#45;&gt;dir_c40eb6f7b133789742bdf3cebb28ba81 -->
<g id="edge4" class="edge">
<title>dir_913229d03cb660fb95c0f2ea29d516b6&#45;&gt;dir_c40eb6f7b133789742bdf3cebb28ba81</title>
<g id="a_edge4"><a xlink:href="dir_000020_000024.html" target="_top">
<path fill="none" stroke="#63b8ff" d="M121.51,-115.72C138.3,-107.44 166.4,-93.58 187.96,-82.94"/>
<polygon fill="#63b8ff" stroke="#63b8ff" points="189.46,-86.1 196.88,-78.54 186.37,-79.83 189.46,-86.1"/>
</a>
</g>
<g id="a_edge4&#45;headlabel"><a xlink:href="dir_000020_000024.html" target="_top" xlink:title="1">
<text text-anchor="middle" x="188.85" y="-86.45" font-family="Helvetica,sans-Serif" font-size="10.00" fill="#63b8ff">1</text>
</a>
</g>
</g>
<!-- dir_169920cafcb3ebc7fb8e8a20f884ad26 -->
<g id="node4" class="node">
<title>dir_169920cafcb3ebc7fb8e8a20f884ad26</title>
<g id="a_node4"><a xlink:href="dir_169920cafcb3ebc7fb8e8a20f884ad26.html" target="_top" xlink:title="tools">
<polygon fill="#a2b4d6" stroke="#404040" points="179,-134.25 139,-134.25 139,-113.5 179,-113.5 179,-134.25"/>
<text text-anchor="middle" x="159" y="-120.75" font-family="Helvetica,sans-Serif" font-size="10.00">tools</text>
</a>
</g>
</g>
<!-- dir_169920cafcb3ebc7fb8e8a20f884ad26&#45;&gt;dir_11fbc4217d50ab21044e5ad6614aede5 -->
<g id="edge5" class="edge">
<title>dir_169920cafcb3ebc7fb8e8a20f884ad26&#45;&gt;dir_11fbc4217d50ab21044e5ad6614aede5</title>
<g id="a_edge5"><a xlink:href="dir_000047_000015.html" target="_top">
<path fill="none" stroke="#63b8ff" d="M150.24,-113.09C143.55,-105.61 134.15,-95.11 126.11,-86.13"/>
<polygon fill="#63b8ff" stroke="#63b8ff" points="128.97,-84.07 119.69,-78.96 123.75,-88.74 128.97,-84.07"/>
</a>
</g>
<g id="a_edge5&#45;headlabel"><a xlink:href="dir_000047_000015.html" target="_top" xlink:title="2">
<text text-anchor="middle" x="132.47" y="-80.61" font-family="Helvetica,sans-Serif" font-size="10.00" fill="#63b8ff">2</text>
</a>
</g>
</g>
<!-- dir_169920cafcb3ebc7fb8e8a20f884ad26&#45;&gt;dir_271d3aa807e54726686810b489123a0c -->
<g id="edge6" class="edge">
<title>dir_169920cafcb3ebc7fb8e8a20f884ad26&#45;&gt;dir_271d3aa807e54726686810b489123a0c</title>
<g id="a_edge6"><a xlink:href="dir_000047_000028.html" target="_top">
<path fill="none" stroke="#63b8ff" d="M179.12,-119.23C200.89,-114.1 234.58,-102.42 250,-77.5 256.72,-66.63 257.01,-59.44 250,-48.75 237.67,-29.95 213.61,-20.55 194.07,-15.89"/>
<polygon fill="#63b8ff" stroke="#63b8ff" points="194.9,-12.49 184.4,-13.91 193.5,-19.35 194.9,-12.49"/>
</a>
</g>
<g id="a_edge6&#45;headlabel"><a xlink:href="dir_000047_000028.html" target="_top" xlink:title="1">
<text text-anchor="middle" x="197.51" y="-7" font-family="Helvetica,sans-Serif" font-size="10.00" fill="#63b8ff">1</text>
</a>
</g>
</g>
<!-- dir_169920cafcb3ebc7fb8e8a20f884ad26&#45;&gt;dir_c40eb6f7b133789742bdf3cebb28ba81 -->
<g id="edge7" class="edge">
<title>dir_169920cafcb3ebc7fb8e8a20f884ad26&#45;&gt;dir_c40eb6f7b133789742bdf3cebb28ba81</title>
<g id="a_edge7"><a xlink:href="dir_000047_000024.html" target="_top">
<path fill="none" stroke="#63b8ff" d="M169.55,-113.09C177.77,-105.46 189.4,-94.67 199.2,-85.57"/>
<polygon fill="#63b8ff" stroke="#63b8ff" points="201.48,-88.23 206.43,-78.86 196.72,-83.09 201.48,-88.23"/>
</a>
</g>
<g id="a_edge7&#45;headlabel"><a xlink:href="dir_000047_000024.html" target="_top" xlink:title="1">
<text text-anchor="middle" x="201.89" y="-88.6" font-family="Helvetica,sans-Serif" font-size="10.00" fill="#63b8ff">1</text>
</a>
</g>
</g>
</g>
</svg>
