<?xml version="1.0" encoding="UTF-8" standalone="no"?>
<!DOCTYPE svg PUBLIC "-//W3C//DTD SVG 1.1//EN"
 "http://www.w3.org/Graphics/SVG/1.1/DTD/svg11.dtd">
<!-- Generated by graphviz version 12.2.1 (0)
 -->
<!-- Title: lib Pages: 1 -->
<svg width="595pt" height="146pt"
 viewBox="0.00 0.00 595.38 146.25" xmlns="http://www.w3.org/2000/svg" xmlns:xlink="http://www.w3.org/1999/xlink">
<g id="graph0" class="graph" transform="scale(1 1) rotate(0) translate(4 142.25)">
<title>lib</title>
<g id="clust1" class="cluster">
<title>clusterdir_271d3aa807e54726686810b489123a0c</title>
<g id="a_clust1"><a xlink:href="dir_271d3aa807e54726686810b489123a0c.html" target="_top" xlink:title="nixd">
<polygon fill="#edf0f7" stroke="#404040" stroke-dasharray="5,2" points="8,-8 8,-130.25 456,-130.25 456,-8 8,-8"/>
<text text-anchor="middle" x="232" y="-116.75" font-family="Helvetica,sans-Serif" font-size="10.00">nixd</text>
</a>
</g>
</g>
<g id="clust2" class="cluster">
<title>clusterdir_8710806578cad174ffcb5e19312c912a</title>
<g id="a_clust2"><a xlink:href="dir_8710806578cad174ffcb5e19312c912a.html" target="_top">
<polygon fill="#edf0f7" stroke="#404040" stroke-width="2" points="16,-64.75 16,-101.5 448,-101.5 448,-64.75 16,-64.75"/>
</a>
</g>
</g>
<!-- dir_5def0a8c33681ccffd5a1a329ca9c6c2 -->
<g id="node1" class="node">
<title>dir_5def0a8c33681ccffd5a1a329ca9c6c2</title>
<g id="a_node1"><a xlink:href="dir_5def0a8c33681ccffd5a1a329ca9c6c2.html" target="_top" xlink:title="lspserver">
<polygon fill="#a2b4d6" stroke="red" points="400.5,-36.75 339.5,-36.75 339.5,-16 400.5,-16 400.5,-36.75"/>
<text text-anchor="middle" x="370" y="-23.25" font-family="Helvetica,sans-Serif" font-size="10.00">lspserver</text>
</a>
</g>
</g>
<!-- dir_6072663c54edb131dd9eabf55cf77072 -->
<g id="node2" class="node">
<title>dir_6072663c54edb131dd9eabf55cf77072</title>
<g id="a_node2"><a xlink:href="dir_6072663c54edb131dd9eabf55cf77072.html" target="_top" xlink:title="include">
<polygon fill="#a2b4d6" stroke="red" points="284.62,-36.75 233.38,-36.75 233.38,-16 284.62,-16 284.62,-36.75"/>
<text text-anchor="middle" x="259" y="-23.25" font-family="Helvetica,sans-Serif" font-size="10.00">include</text>
</a>
</g>
</g>
<!-- dir_8710806578cad174ffcb5e19312c912a -->
<g id="node3" class="node">
<title>dir_8710806578cad174ffcb5e19312c912a</title>
<text text-anchor="middle" x="38" y="-80" font-family="Helvetica,sans-Serif" font-size="10.00">lib</text>
</g>
<!-- dir_ace1bc4bdf9378a7354e2dacfa3269ed -->
<g id="node4" class="node">
<title>dir_ace1bc4bdf9378a7354e2dacfa3269ed</title>
<g id="a_node4"><a xlink:href="dir_ace1bc4bdf9378a7354e2dacfa3269ed.html" target="_top" xlink:title="CommandLine">
<polygon fill="#a2b4d6" stroke="#404040" points="302.25,-93.5 215.75,-93.5 215.75,-72.75 302.25,-72.75 302.25,-93.5"/>
<text text-anchor="middle" x="259" y="-80" font-family="Helvetica,sans-Serif" font-size="10.00">CommandLine</text>
</a>
</g>
</g>
<!-- dir_ace1bc4bdf9378a7354e2dacfa3269ed&#45;&gt;dir_5def0a8c33681ccffd5a1a329ca9c6c2 -->
<g id="edge1" class="edge">
<title>dir_ace1bc4bdf9378a7354e2dacfa3269ed&#45;&gt;dir_5def0a8c33681ccffd5a1a329ca9c6c2</title>
<g id="a_edge1"><a xlink:href="dir_000005_000025.html" target="_top">
<path fill="none" stroke="#63b8ff" d="M278.84,-72.34C295.89,-63.93 320.72,-51.68 340.16,-42.09"/>
<polygon fill="#63b8ff" stroke="#63b8ff" points="341.55,-45.31 348.97,-37.75 338.45,-39.03 341.55,-45.31"/>
</a>
</g>
<g id="a_edge1&#45;headlabel"><a xlink:href="dir_000005_000025.html" target="_top" xlink:title="1">
<text text-anchor="middle" x="340.94" y="-45.65" font-family="Helvetica,sans-Serif" font-size="10.00" fill="#63b8ff">1</text>
</a>
</g>
</g>
<!-- dir_ace1bc4bdf9378a7354e2dacfa3269ed&#45;&gt;dir_6072663c54edb131dd9eabf55cf77072 -->
<g id="edge2" class="edge">
<title>dir_ace1bc4bdf9378a7354e2dacfa3269ed&#45;&gt;dir_6072663c54edb131dd9eabf55cf77072</title>
<g id="a_edge2"><a xlink:href="dir_000005_000018.html" target="_top">
<path fill="none" stroke="#63b8ff" d="M259,-72.34C259,-65.72 259,-56.72 259,-48.52"/>
<polygon fill="#63b8ff" stroke="#63b8ff" points="262.5,-48.59 259,-38.59 255.5,-48.59 262.5,-48.59"/>
</a>
</g>
<g id="a_edge2&#45;headlabel"><a xlink:href="dir_000005_000018.html" target="_top" xlink:title="3">
<text text-anchor="middle" x="265.34" y="-47.55" font-family="Helvetica,sans-Serif" font-size="10.00" fill="#63b8ff">3</text>
</a>
</g>
</g>
<!-- dir_bdd9a5d540de89e9fe90efdfc6973a4f -->
<g id="node10" class="node">
<title>dir_bdd9a5d540de89e9fe90efdfc6973a4f</title>
<g id="a_node10"><a xlink:href="dir_bdd9a5d540de89e9fe90efdfc6973a4f.html" target="_top" xlink:title="common">
<polygon fill="#edf0f7" stroke="red" points="522.38,-36.75 463.62,-36.75 463.62,-16 522.38,-16 522.38,-36.75"/>
<text text-anchor="middle" x="493" y="-23.25" font-family="Helvetica,sans-Serif" font-size="10.00">common</text>
</a>
</g>
</g>
<!-- dir_ace1bc4bdf9378a7354e2dacfa3269ed&#45;&gt;dir_bdd9a5d540de89e9fe90efdfc6973a4f -->
<g id="edge3" class="edge">
<title>dir_ace1bc4bdf9378a7354e2dacfa3269ed&#45;&gt;dir_bdd9a5d540de89e9fe90efdfc6973a4f</title>
<g id="a_edge3"><a xlink:href="dir_000005_000006.html" target="_top">
<path fill="none" stroke="#63b8ff" d="M286.58,-72.33C294.71,-69.65 303.65,-66.9 312,-64.75 373.16,-49.01 392.66,-51.74 452.03,-38.54"/>
<polygon fill="#63b8ff" stroke="#63b8ff" points="452.73,-41.97 461.7,-36.32 451.17,-35.14 452.73,-41.97"/>
</a>
</g>
<g id="a_edge3&#45;headlabel"><a xlink:href="dir_000005_000006.html" target="_top" xlink:title="1">
<text text-anchor="middle" x="451.34" y="-42.07" font-family="Helvetica,sans-Serif" font-size="10.00" fill="#63b8ff">1</text>
</a>
</g>
</g>
<!-- dir_2dfd61e782002e6a63843e36bf78a91c -->
<g id="node5" class="node">
<title>dir_2dfd61e782002e6a63843e36bf78a91c</title>
<g id="a_node5"><a xlink:href="dir_2dfd61e782002e6a63843e36bf78a91c.html" target="_top" xlink:title="Controller">
<polygon fill="#a2b4d6" stroke="#404040" points="440,-93.5 376,-93.5 376,-72.75 440,-72.75 440,-93.5"/>
<text text-anchor="middle" x="408" y="-80" font-family="Helvetica,sans-Serif" font-size="10.00">Controller</text>
</a>
</g>
</g>
<!-- dir_2dfd61e782002e6a63843e36bf78a91c&#45;&gt;dir_5def0a8c33681ccffd5a1a329ca9c6c2 -->
<g id="edge4" class="edge">
<title>dir_2dfd61e782002e6a63843e36bf78a91c&#45;&gt;dir_5def0a8c33681ccffd5a1a329ca9c6c2</title>
<g id="a_edge4"><a xlink:href="dir_000008_000025.html" target="_top">
<path fill="none" stroke="#63b8ff" d="M401.21,-72.34C396.23,-65.17 389.33,-55.23 383.28,-46.51"/>
<polygon fill="#63b8ff" stroke="#63b8ff" points="386.18,-44.54 377.6,-38.32 380.42,-48.53 386.18,-44.54"/>
</a>
</g>
<g id="a_edge4&#45;headlabel"><a xlink:href="dir_000008_000025.html" target="_top" xlink:title="11">
<text text-anchor="middle" x="389.69" y="-41.51" font-family="Helvetica,sans-Serif" font-size="10.00" fill="#63b8ff">11</text>
</a>
</g>
</g>
<!-- dir_2dfd61e782002e6a63843e36bf78a91c&#45;&gt;dir_6072663c54edb131dd9eabf55cf77072 -->
<g id="edge5" class="edge">
<title>dir_2dfd61e782002e6a63843e36bf78a91c&#45;&gt;dir_6072663c54edb131dd9eabf55cf77072</title>
<g id="a_edge5"><a xlink:href="dir_000008_000018.html" target="_top">
<path fill="none" stroke="#63b8ff" d="M385.55,-72.29C379.56,-69.75 373.06,-67.08 367,-64.75 343.45,-55.7 316.65,-46.42 295.64,-39.37"/>
<polygon fill="#63b8ff" stroke="#63b8ff" points="296.96,-36.12 286.36,-36.28 294.74,-42.76 296.96,-36.12"/>
</a>
</g>
<g id="a_edge5&#45;headlabel"><a xlink:href="dir_000008_000018.html" target="_top" xlink:title="22">
<text text-anchor="middle" x="299.83" y="-30.96" font-family="Helvetica,sans-Serif" font-size="10.00" fill="#63b8ff">22</text>
</a>
</g>
</g>
<!-- dir_9ff0e04ed484c0229c3bd8fc4cfe4cb8 -->
<g id="node9" class="node">
<title>dir_9ff0e04ed484c0229c3bd8fc4cfe4cb8</title>
<g id="a_node9"><a xlink:href="dir_9ff0e04ed484c0229c3bd8fc4cfe4cb8.html" target="_top" xlink:title="libnixf">
<polygon fill="#edf0f7" stroke="red" points="587.38,-36.75 540.62,-36.75 540.62,-16 587.38,-16 587.38,-36.75"/>
<text text-anchor="middle" x="564" y="-23.25" font-family="Helvetica,sans-Serif" font-size="10.00">libnixf</text>
</a>
</g>
</g>
<!-- dir_2dfd61e782002e6a63843e36bf78a91c&#45;&gt;dir_9ff0e04ed484c0229c3bd8fc4cfe4cb8 -->
<g id="edge6" class="edge">
<title>dir_2dfd61e782002e6a63843e36bf78a91c&#45;&gt;dir_9ff0e04ed484c0229c3bd8fc4cfe4cb8</title>
<g id="a_edge6"><a xlink:href="dir_000008_000023.html" target="_top">
<path fill="none" stroke="#63b8ff" d="M435.89,-72.34C462.2,-63.1 501.69,-49.24 529.86,-39.36"/>
<polygon fill="#63b8ff" stroke="#63b8ff" points="530.72,-42.76 539,-36.15 528.41,-36.16 530.72,-42.76"/>
</a>
</g>
<g id="a_edge6&#45;headlabel"><a xlink:href="dir_000008_000023.html" target="_top" xlink:title="30">
<text text-anchor="middle" x="529.7" y="-43.01" font-family="Helvetica,sans-Serif" font-size="10.00" fill="#63b8ff">30</text>
</a>
</g>
</g>
<!-- dir_2dfd61e782002e6a63843e36bf78a91c&#45;&gt;dir_bdd9a5d540de89e9fe90efdfc6973a4f -->
<g id="edge7" class="edge">
<title>dir_2dfd61e782002e6a63843e36bf78a91c&#45;&gt;dir_bdd9a5d540de89e9fe90efdfc6973a4f</title>
<g id="a_edge7"><a xlink:href="dir_000008_000006.html" target="_top">
<path fill="none" stroke="#63b8ff" d="M423.2,-72.34C435.77,-64.24 453.86,-52.58 468.48,-43.17"/>
<polygon fill="#63b8ff" stroke="#63b8ff" points="470.15,-46.26 476.66,-37.9 466.36,-40.37 470.15,-46.26"/>
</a>
</g>
<g id="a_edge7&#45;headlabel"><a xlink:href="dir_000008_000006.html" target="_top" xlink:title="8">
<text text-anchor="middle" x="469.94" y="-46.64" font-family="Helvetica,sans-Serif" font-size="10.00" fill="#63b8ff">8</text>
</a>
</g>
</g>
<!-- dir_272f3262a55b8c6cb4d459b3d2979355 -->
<g id="node6" class="node">
<title>dir_272f3262a55b8c6cb4d459b3d2979355</title>
<g id="a_node6"><a xlink:href="dir_272f3262a55b8c6cb4d459b3d2979355.html" target="_top" xlink:title="Eval">
<polygon fill="#a2b4d6" stroke="#404040" points="357.5,-93.5 320.5,-93.5 320.5,-72.75 357.5,-72.75 357.5,-93.5"/>
<text text-anchor="middle" x="339" y="-80" font-family="Helvetica,sans-Serif" font-size="10.00">Eval</text>
</a>
</g>
</g>
<!-- dir_272f3262a55b8c6cb4d459b3d2979355&#45;&gt;dir_6072663c54edb131dd9eabf55cf77072 -->
<g id="edge8" class="edge">
<title>dir_272f3262a55b8c6cb4d459b3d2979355&#45;&gt;dir_6072663c54edb131dd9eabf55cf77072</title>
<g id="a_edge8"><a xlink:href="dir_000014_000018.html" target="_top">
<path fill="none" stroke="#63b8ff" d="M324.7,-72.34C312.98,-64.32 296.16,-52.81 282.47,-43.44"/>
<polygon fill="#63b8ff" stroke="#63b8ff" points="284.66,-40.69 274.43,-37.93 280.7,-46.47 284.66,-40.69"/>
</a>
</g>
<g id="a_edge8&#45;headlabel"><a xlink:href="dir_000014_000018.html" target="_top" xlink:title="1">
<text text-anchor="middle" x="287.98" y="-36.4" font-family="Helvetica,sans-Serif" font-size="10.00" fill="#63b8ff">1</text>
</a>
</g>
</g>
<!-- dir_272f3262a55b8c6cb4d459b3d2979355&#45;&gt;dir_bdd9a5d540de89e9fe90efdfc6973a4f -->
<g id="edge9" class="edge">
<title>dir_272f3262a55b8c6cb4d459b3d2979355&#45;&gt;dir_bdd9a5d540de89e9fe90efdfc6973a4f</title>
<g id="a_edge9"><a xlink:href="dir_000014_000006.html" target="_top">
<path fill="none" stroke="#63b8ff" d="M353.13,-72.34C357.45,-69.63 362.3,-66.86 367,-64.75 371.06,-62.93 417.02,-49.43 452.27,-39.17"/>
<polygon fill="#63b8ff" stroke="#63b8ff" points="453.19,-42.55 461.82,-36.4 451.24,-35.83 453.19,-42.55"/>
</a>
</g>
<g id="a_edge9&#45;headlabel"><a xlink:href="dir_000014_000006.html" target="_top" xlink:title="2">
<text text-anchor="middle" x="451.99" y="-42.73" font-family="Helvetica,sans-Serif" font-size="10.00" fill="#63b8ff">2</text>
</a>
</g>
</g>
<!-- dir_c7c53a0769b4ad4e9ba220fbe05bc880 -->
<g id="node7" class="node">
<title>dir_c7c53a0769b4ad4e9ba220fbe05bc880</title>
<g id="a_node7"><a xlink:href="dir_c7c53a0769b4ad4e9ba220fbe05bc880.html" target="_top" xlink:title="Protocol">
<polygon fill="#a2b4d6" stroke="#404040" points="125.88,-93.5 70.12,-93.5 70.12,-72.75 125.88,-72.75 125.88,-93.5"/>
<text text-anchor="middle" x="98" y="-80" font-family="Helvetica,sans-Serif" font-size="10.00">Protocol</text>
</a>
</g>
</g>
<!-- dir_c7c53a0769b4ad4e9ba220fbe05bc880&#45;&gt;dir_6072663c54edb131dd9eabf55cf77072 -->
<g id="edge10" class="edge">
<title>dir_c7c53a0769b4ad4e9ba220fbe05bc880&#45;&gt;dir_6072663c54edb131dd9eabf55cf77072</title>
<g id="a_edge10"><a xlink:href="dir_000038_000018.html" target="_top">
<path fill="none" stroke="#63b8ff" d="M117.36,-72.38C122.97,-69.74 129.17,-66.98 135,-64.75 163.77,-53.73 197.26,-43.8 222.18,-36.95"/>
<polygon fill="#63b8ff" stroke="#63b8ff" points="222.78,-40.41 231.52,-34.42 220.95,-33.66 222.78,-40.41"/>
</a>
</g>
<g id="a_edge10&#45;headlabel"><a xlink:href="dir_000038_000018.html" target="_top" xlink:title="1">
<text text-anchor="middle" x="221.52" y="-40.57" font-family="Helvetica,sans-Serif" font-size="10.00" fill="#63b8ff">1</text>
</a>
</g>
</g>
<!-- dir_978717066d8678c437a210f61244a087 -->
<g id="node8" class="node">
<title>dir_978717066d8678c437a210f61244a087</title>
<g id="a_node8"><a xlink:href="dir_978717066d8678c437a210f61244a087.html" target="_top" xlink:title="Support">
<polygon fill="#a2b4d6" stroke="#404040" points="197.75,-93.5 144.25,-93.5 144.25,-72.75 197.75,-72.75 197.75,-93.5"/>
<text text-anchor="middle" x="171" y="-80" font-family="Helvetica,sans-Serif" font-size="10.00">Support</text>
</a>
</g>
</g>
<!-- dir_978717066d8678c437a210f61244a087&#45;&gt;dir_6072663c54edb131dd9eabf55cf77072 -->
<g id="edge11" class="edge">
<title>dir_978717066d8678c437a210f61244a087&#45;&gt;dir_6072663c54edb131dd9eabf55cf77072</title>
<g id="a_edge11"><a xlink:href="dir_000046_000018.html" target="_top">
<path fill="none" stroke="#63b8ff" d="M186.73,-72.34C199.87,-64.16 218.84,-52.36 234.05,-42.9"/>
<polygon fill="#63b8ff" stroke="#63b8ff" points="235.48,-46.13 242.12,-37.88 231.78,-40.19 235.48,-46.13"/>
</a>
</g>
<g id="a_edge11&#45;headlabel"><a xlink:href="dir_000046_000018.html" target="_top" xlink:title="2">
<text text-anchor="middle" x="235.21" y="-46.52" font-family="Helvetica,sans-Serif" font-size="10.00" fill="#63b8ff">2</text>
</a>
</g>
</g>
</g>
</svg>
